<svg width="140" height="28" viewBox="0 0 140 28" fill="none" xmlns="http://www.w3.org/2000/svg">
<g clip-path="url(#clip0_44_3)">
<path d="M37.4072 20.166C36.8312 20.166 36.3317 20.0484 35.9085 19.8133C35.4854 19.5782 35.1387 19.2433 34.8683 18.8084C34.6098 18.3617 34.4217 17.8211 34.3042 17.1864H34.0397L34.0926 19.9368H32.1709V7.54248H34.4099V10.3634C34.4099 10.669 34.3923 10.9981 34.3571 11.3506C34.3218 11.6916 34.2748 12.05 34.216 12.4262C34.169 12.7905 34.1102 13.1725 34.0397 13.5721H34.3218C34.4628 12.9374 34.6626 12.3909 34.9212 11.9325C35.1798 11.4741 35.5207 11.1214 35.9438 10.8746C36.3669 10.6278 36.8723 10.5044 37.4601 10.5044C38.2005 10.5044 38.8411 10.6984 39.3818 11.0862C39.9342 11.4741 40.3573 12.0265 40.6512 12.7435C40.9567 13.4605 41.1096 14.3244 41.1096 15.3352C41.1096 16.3578 40.9567 17.2276 40.6512 17.9446C40.3456 18.6615 39.9166 19.2139 39.3642 19.6017C38.8117 19.9779 38.1594 20.166 37.4072 20.166ZM36.702 18.3324C37.1368 18.3324 37.507 18.209 37.8126 17.9622C38.13 17.7154 38.371 17.3686 38.5355 16.9219C38.7118 16.4753 38.7999 15.9581 38.7999 15.3705C38.7999 14.7828 38.7177 14.2656 38.5531 13.819C38.3886 13.3606 38.1535 13.0021 37.8479 12.7435C37.5423 12.4849 37.1662 12.3556 36.7196 12.3556C36.414 12.3556 36.1377 12.4144 35.8909 12.5319C35.6441 12.6495 35.4266 12.8081 35.2386 13.0079C35.0623 13.2078 34.9094 13.437 34.7802 13.6955C34.6509 13.9424 34.551 14.2009 34.4805 14.4713C34.4217 14.7298 34.3923 14.9884 34.3923 15.247V15.4762C34.3923 15.8054 34.4393 16.1403 34.5334 16.4812C34.6391 16.8103 34.7861 17.1159 34.9742 17.3979C35.1739 17.68 35.4149 17.9092 35.697 18.0855C35.9908 18.2501 36.3258 18.3324 36.702 18.3324Z" fill="white"/>
<path d="M45.0504 20.166C44.545 20.166 44.0866 20.0779 43.6752 19.9015C43.2756 19.7135 42.9583 19.4314 42.7232 19.0553C42.4881 18.6674 42.3706 18.1914 42.3706 17.6272C42.3706 17.016 42.4999 16.5282 42.7585 16.1639C43.017 15.7995 43.352 15.5174 43.7634 15.3176C44.1866 15.106 44.639 14.9533 45.1209 14.8592C45.6028 14.7534 46.0729 14.6652 46.5314 14.5947C47.025 14.5242 47.407 14.4596 47.6774 14.4008C47.9477 14.3303 48.1358 14.2363 48.2415 14.1187C48.3591 14.0012 48.4178 13.8366 48.4178 13.6251C48.4178 13.3547 48.3532 13.1196 48.2239 12.9198C48.1064 12.7082 47.9242 12.5438 47.6774 12.4262C47.4423 12.3087 47.1485 12.2498 46.7958 12.2498C46.4667 12.2498 46.1494 12.3087 45.8437 12.4262C45.5382 12.5438 45.2737 12.7317 45.0504 12.9904C44.8388 13.249 44.7037 13.5898 44.6449 14.013L42.6526 13.5546C42.735 13.0139 42.8995 12.5555 43.1463 12.1793C43.3931 11.7915 43.6988 11.4741 44.0631 11.2273C44.4393 10.9687 44.8564 10.7806 45.3148 10.6631C45.785 10.5455 46.2845 10.4868 46.8134 10.4868C47.4952 10.4868 48.077 10.5809 48.5589 10.7689C49.0526 10.9452 49.4463 11.2097 49.7402 11.5623C50.0458 11.9149 50.2632 12.338 50.3924 12.8317C50.5335 13.3136 50.604 13.8601 50.604 14.4714V16.1639C50.6158 16.5752 50.6275 16.9925 50.6393 17.4157C50.651 17.8388 50.6628 18.2619 50.6745 18.685C50.6981 19.1082 50.7216 19.5254 50.7451 19.9368H48.7705C48.7469 19.5607 48.7234 19.1669 48.6999 18.7555C48.6882 18.3442 48.6764 17.9211 48.6647 17.4862H48.4355C48.3062 17.9798 48.0888 18.4323 47.7831 18.8437C47.4775 19.2433 47.0956 19.5666 46.6372 19.8134C46.1788 20.0485 45.6499 20.166 45.0504 20.166ZM45.8967 18.5087C46.1435 18.5087 46.3962 18.4617 46.6548 18.3677C46.9134 18.2736 47.1602 18.1326 47.3953 17.9446C47.6421 17.7565 47.8537 17.5214 48.03 17.2393C48.218 16.9455 48.3591 16.6046 48.4531 16.2168L48.4355 15.0531L48.8762 15.0708C48.6999 15.2471 48.4707 15.3822 48.1886 15.4763C47.9183 15.5585 47.6186 15.629 47.2895 15.6879C46.9721 15.7349 46.6489 15.7877 46.3198 15.8465C46.0025 15.9053 45.7086 15.9876 45.4383 16.0933C45.168 16.1992 44.9505 16.346 44.7859 16.5341C44.6331 16.7222 44.5567 16.9749 44.5567 17.2922C44.5567 17.6684 44.6802 17.9681 44.927 18.1914C45.1739 18.403 45.497 18.5087 45.8967 18.5087Z" fill="white"/>
<path d="M52.625 19.9368V10.7336H54.5291L54.441 13.9777H54.7055C54.8347 13.1314 55.0404 12.4555 55.3225 11.9501C55.6163 11.433 55.9807 11.0628 56.4156 10.8395C56.8504 10.6044 57.3559 10.4868 57.9318 10.4868C58.4607 10.4868 58.9074 10.5809 59.2717 10.7689C59.6361 10.9452 59.9358 11.192 60.1709 11.5094C60.406 11.815 60.5882 12.1617 60.7174 12.5496C60.8585 12.9374 60.9525 13.343 60.9996 13.7661C61.0466 14.1892 61.0701 14.6006 61.0701 15.0003V19.9368H58.8486V15.2647C58.8486 15.0179 58.831 14.7358 58.7957 14.4184C58.7722 14.0893 58.7075 13.772 58.6018 13.4664C58.496 13.1608 58.3315 12.9081 58.1082 12.7082C57.8848 12.5085 57.5674 12.4085 57.1561 12.4085C56.6624 12.4085 56.2452 12.5673 55.9043 12.8846C55.5752 13.1901 55.3166 13.6309 55.1285 14.2069C54.9523 14.7711 54.8641 15.4352 54.8641 16.1992V19.9368H52.625Z" fill="white"/>
<path d="M65.3151 20.166C64.8097 20.166 64.3513 20.0779 63.9399 19.9015C63.5403 19.7135 63.2229 19.4314 62.9879 19.0553C62.7528 18.6674 62.6353 18.1914 62.6353 17.6272C62.6353 17.016 62.7645 16.5282 63.0231 16.1639C63.2817 15.7995 63.6167 15.5174 64.028 15.3176C64.4512 15.106 64.9037 14.9533 65.3856 14.8592C65.8675 14.7534 66.3377 14.6652 66.7961 14.5947C67.2898 14.5242 67.6717 14.4596 67.942 14.4008C68.2124 14.3303 68.4004 14.2363 68.5063 14.1187C68.6238 14.0012 68.6826 13.8366 68.6826 13.6251C68.6826 13.3547 68.6179 13.1196 68.4886 12.9198C68.3711 12.7082 68.1889 12.5438 67.942 12.4262C67.707 12.3087 67.4131 12.2498 67.0606 12.2498C66.7314 12.2498 66.4141 12.3087 66.1085 12.4262C65.8029 12.5438 65.5385 12.7317 65.3151 12.9904C65.1036 13.249 64.9684 13.5898 64.9096 14.013L62.9174 13.5546C62.9996 13.0139 63.1642 12.5555 63.411 12.1793C63.6579 11.7915 63.9634 11.4741 64.3278 11.2273C64.7039 10.9687 65.1212 10.7806 65.5796 10.6631C66.0497 10.5455 66.5493 10.4868 67.0782 10.4868C67.7599 10.4868 68.3417 10.5809 68.8236 10.7689C69.3172 10.9452 69.711 11.2097 70.0048 11.5623C70.3104 11.9149 70.5279 12.338 70.6572 12.8317C70.7982 13.3136 70.8688 13.8601 70.8688 14.4714V16.1639C70.8805 16.5752 70.8923 16.9925 70.904 17.4157C70.9158 17.8388 70.9275 18.2619 70.9393 18.685C70.9628 19.1082 70.9863 19.5254 71.0098 19.9368H69.0352C69.0117 19.5607 68.9882 19.1669 68.9647 18.7555C68.9529 18.3442 68.9412 17.9211 68.9294 17.4862H68.7002C68.5709 17.9798 68.3534 18.4323 68.0479 18.8437C67.7423 19.2433 67.3602 19.5666 66.9018 19.8134C66.4434 20.0485 65.9145 20.166 65.3151 20.166ZM66.1614 18.5087C66.4082 18.5087 66.6609 18.4617 66.9195 18.3677C67.178 18.2736 67.4249 18.1326 67.6599 17.9446C67.9068 17.7565 68.1184 17.5214 68.2947 17.2393C68.4828 16.9455 68.6238 16.6046 68.7178 16.2168L68.7002 15.0531L69.1409 15.0708C68.9647 15.2471 68.7355 15.3822 68.4534 15.4763C68.183 15.5585 67.8833 15.629 67.5542 15.6879C67.2369 15.7349 66.9136 15.7877 66.5845 15.8465C66.2672 15.9053 65.9733 15.9876 65.703 16.0933C65.4326 16.1992 65.2152 16.346 65.0507 16.5341C64.8979 16.7222 64.8215 16.9749 64.8215 17.2922C64.8215 17.6684 64.9449 17.9681 65.1917 18.1914C65.4385 18.403 65.7618 18.5087 66.1614 18.5087Z" fill="white"/>
<path d="M72.8901 19.9368V10.7336H74.7942L74.7061 13.9777H74.9705C75.0998 13.1314 75.3055 12.4555 75.5876 11.9501C75.8815 11.433 76.2458 11.0628 76.6807 10.8395C77.1156 10.6044 77.621 10.4868 78.1969 10.4868C78.7258 10.4868 79.1724 10.5809 79.5368 10.7689C79.9012 10.9452 80.201 11.192 80.436 11.5094C80.6711 11.815 80.8532 12.1617 80.9826 12.5496C81.1235 12.9374 81.2176 13.343 81.2646 13.7661C81.3116 14.1892 81.3351 14.6006 81.3351 15.0003V19.9368H79.1137V15.2647C79.1137 15.0179 79.0961 14.7358 79.0608 14.4184C79.0373 14.0893 78.9727 13.772 78.8669 13.4664C78.7611 13.1608 78.5965 12.9081 78.3732 12.7082C78.1499 12.5085 77.8326 12.4085 77.4212 12.4085C76.9275 12.4085 76.5102 12.5673 76.1694 12.8846C75.8403 13.1901 75.5817 13.6309 75.3937 14.2069C75.2173 14.7711 75.1292 15.4352 75.1292 16.1992V19.9368H72.8901Z" fill="white"/>
<path d="M85.5797 20.166C85.0743 20.166 84.6159 20.0779 84.2045 19.9015C83.8049 19.7135 83.4875 19.4314 83.2525 19.0553C83.0174 18.6674 82.8999 18.1914 82.8999 17.6272C82.8999 17.016 83.0292 16.5282 83.2878 16.1639C83.5463 15.7995 83.8813 15.5174 84.2927 15.3176C84.7158 15.106 85.1683 14.9533 85.6502 14.8592C86.1321 14.7534 86.6022 14.6652 87.0607 14.5947C87.5543 14.5242 87.9363 14.4596 88.2069 14.4008C88.4772 14.3303 88.6647 14.2363 88.7713 14.1187C88.8884 14.0012 88.9474 13.8366 88.9474 13.6251C88.9474 13.3547 88.8822 13.1196 88.7528 12.9198C88.6357 12.7082 88.4534 12.5438 88.2069 12.4262C87.9716 12.3087 87.6778 12.2498 87.3251 12.2498C86.996 12.2498 86.6787 12.3087 86.373 12.4262C86.0675 12.5438 85.803 12.7317 85.5797 12.9904C85.3681 13.249 85.233 13.5898 85.1742 14.013L83.1819 13.5546C83.2643 13.0139 83.4288 12.5555 83.6756 12.1793C83.9224 11.7915 84.228 11.4741 84.5924 11.2273C84.9686 10.9687 85.3857 10.7806 85.8441 10.6631C86.3143 10.5455 86.8138 10.4868 87.3427 10.4868C88.0245 10.4868 88.6066 10.5809 89.0883 10.7689C89.5822 10.9452 89.9758 11.2097 90.269 11.5623C90.5754 11.9149 90.7929 12.338 90.9215 12.8317C91.0632 13.3136 91.1337 13.8601 91.1337 14.4714V16.1639C91.1451 16.5752 91.1566 16.9925 91.1689 17.4157C91.1803 17.8388 91.1918 18.2619 91.2041 18.685C91.227 19.1082 91.2508 19.5254 91.2745 19.9368H89.2996C89.2767 19.5607 89.2529 19.1669 89.2291 18.7555C89.2177 18.3442 89.2054 17.9211 89.1939 17.4862H88.965C88.8355 17.9798 88.6181 18.4323 88.3125 18.8437C88.0068 19.2433 87.6249 19.5666 87.1665 19.8134C86.7081 20.0485 86.1792 20.166 85.5797 20.166ZM86.426 18.5087C86.6728 18.5087 86.9255 18.4617 87.1841 18.3677C87.4427 18.2736 87.6895 18.1326 87.9246 17.9446C88.1716 17.7565 88.383 17.5214 88.5591 17.2393C88.7475 16.9455 88.8884 16.6046 88.9826 16.2168L88.965 15.0531L89.4052 15.0708C89.2291 15.2471 89.0002 15.3822 88.7176 15.4763C88.4472 15.5585 88.1479 15.629 87.8188 15.6879C87.5014 15.7349 87.1782 15.7877 86.8491 15.8465C86.5318 15.9053 86.2379 15.9876 85.9676 16.0933C85.6973 16.1992 85.4798 16.346 85.3152 16.5341C85.1624 16.7222 85.086 16.9749 85.086 17.2922C85.086 17.6684 85.2095 17.9681 85.4563 18.1914C85.7032 18.403 86.0264 18.5087 86.426 18.5087Z" fill="white"/>
<path d="M100.834 20.166C100.211 20.166 99.6463 20.1014 99.1409 19.972C98.6478 19.8545 98.2181 19.6782 97.8545 19.4431C97.49 19.1963 97.2073 18.8907 97.0074 18.5263C96.8084 18.1503 96.6966 17.7212 96.6729 17.2393L98.5061 16.7633C98.5184 17.1159 98.624 17.4274 98.8239 17.6977C99.0238 17.9563 99.2994 18.1561 99.6525 18.2971C100.017 18.4382 100.452 18.5087 100.957 18.5087C101.521 18.5087 101.962 18.4206 102.279 18.2443C102.608 18.0562 102.773 17.7917 102.773 17.4509C102.773 17.1923 102.685 16.9925 102.509 16.8514C102.344 16.7104 102.098 16.5928 101.768 16.4988C101.439 16.3931 101.039 16.2931 100.569 16.1992C100.099 16.0933 99.641 15.9758 99.1937 15.8465C98.7473 15.7172 98.3423 15.5527 97.9778 15.3528C97.6247 15.153 97.3429 14.8886 97.1316 14.5595C96.9194 14.2304 96.8137 13.819 96.8137 13.3254C96.8137 12.7494 96.9669 12.2498 97.2725 11.8268C97.578 11.4036 98.013 11.0745 98.5774 10.8395C99.1532 10.6044 99.8409 10.4868 100.64 10.4868C101.38 10.4868 102.032 10.5985 102.597 10.8218C103.173 11.0333 103.631 11.3566 103.972 11.7915C104.324 12.2146 104.518 12.7376 104.553 13.3606L102.685 13.819C102.673 13.4546 102.579 13.1549 102.403 12.9198C102.226 12.673 101.98 12.4849 101.663 12.3557C101.357 12.2263 100.998 12.1617 100.587 12.1617C100.058 12.1617 99.641 12.2616 99.3355 12.4614C99.0414 12.6495 98.8944 12.9022 98.8944 13.2195C98.8944 13.4781 98.9886 13.6838 99.1761 13.8366C99.3646 13.9895 99.6287 14.1128 99.9695 14.2069C100.31 14.3009 100.71 14.3949 101.169 14.489C101.615 14.583 102.056 14.6888 102.491 14.8063C102.926 14.9238 103.32 15.0825 103.672 15.2823C104.036 15.4822 104.324 15.7466 104.536 16.0757C104.748 16.4049 104.854 16.8279 104.854 17.3451C104.854 17.9328 104.695 18.4441 104.377 18.879C104.06 19.3021 103.602 19.6253 103.002 19.8487C102.403 20.0603 101.68 20.166 100.834 20.166Z" fill="white"/>
<path d="M106.463 22.7225V10.7336H108.386L108.333 13.3782L108.579 13.3958C108.709 12.7494 108.902 12.2146 109.161 11.7915C109.432 11.3566 109.772 11.0333 110.184 10.8218C110.607 10.5985 111.095 10.4868 111.647 10.4868C112.435 10.4868 113.104 10.6808 113.657 11.0687C114.221 11.4565 114.65 12.0148 114.944 12.7435C115.238 13.4723 115.385 14.3362 115.385 15.3352C115.385 16.3225 115.238 17.1806 114.944 17.9093C114.662 18.6263 114.251 19.1846 113.71 19.5842C113.169 19.972 112.517 20.166 111.753 20.166C111.154 20.166 110.648 20.0485 110.236 19.8134C109.825 19.5666 109.484 19.2198 109.214 18.7732C108.955 18.3266 108.755 17.8035 108.614 17.2041H108.333C108.403 17.5684 108.462 17.9269 108.509 18.2795C108.568 18.6322 108.614 18.9789 108.65 19.3198C108.685 19.6488 108.702 19.9662 108.702 20.2718V22.7225H106.463ZM111.012 18.3325C111.459 18.3325 111.835 18.209 112.141 17.9622C112.446 17.7036 112.675 17.351 112.829 16.9044C112.993 16.4577 113.075 15.9406 113.075 15.3528C113.075 14.7534 112.993 14.2363 112.829 13.8014C112.664 13.3547 112.423 13.008 112.106 12.7612C111.8 12.5144 111.429 12.3909 110.994 12.3909C110.618 12.3909 110.284 12.4732 109.99 12.6377C109.708 12.8023 109.467 13.0257 109.267 13.3077C109.078 13.5781 108.932 13.8778 108.826 14.2069C108.732 14.536 108.685 14.8709 108.685 15.2118V15.4587C108.685 15.7172 108.715 15.9817 108.773 16.252C108.843 16.5106 108.944 16.7633 109.073 17.0101C109.203 17.2569 109.355 17.4803 109.531 17.6801C109.719 17.8799 109.937 18.0385 110.184 18.1561C110.431 18.2736 110.707 18.3325 111.012 18.3325Z" fill="white"/>
<path d="M121.299 20.166C120.406 20.166 119.613 19.9838 118.919 19.6195C118.237 19.2551 117.697 18.7144 117.297 17.9974C116.909 17.2687 116.715 16.3754 116.715 15.3176C116.715 14.2245 116.915 13.3254 117.314 12.6201C117.714 11.9031 118.255 11.3684 118.936 11.0157C119.63 10.6631 120.411 10.4868 121.281 10.4868C122.175 10.4868 122.962 10.669 123.644 11.0333C124.337 11.3977 124.878 11.9384 125.266 12.6554C125.665 13.3723 125.865 14.2715 125.865 15.3528C125.865 16.446 125.665 17.351 125.266 18.0679C124.867 18.7732 124.32 19.3021 123.626 19.6547C122.933 19.9955 122.157 20.166 121.299 20.166ZM121.352 18.4735C121.657 18.4735 121.946 18.4206 122.216 18.3148C122.498 18.1973 122.739 18.0209 122.938 17.7858C123.15 17.5508 123.315 17.2393 123.432 16.8514C123.55 16.4636 123.608 15.9993 123.608 15.4587C123.608 14.8944 123.544 14.4125 123.415 14.013C123.285 13.6016 123.109 13.2666 122.885 13.008C122.674 12.7494 122.421 12.5614 122.127 12.4438C121.846 12.3263 121.54 12.2675 121.211 12.2675C120.917 12.2675 120.635 12.3263 120.365 12.4438C120.094 12.5496 119.853 12.72 119.642 12.9551C119.43 13.1901 119.266 13.5017 119.148 13.8895C119.031 14.2774 118.972 14.7417 118.972 15.2823C118.972 15.8465 119.031 16.3343 119.148 16.7457C119.277 17.1453 119.454 17.4744 119.677 17.733C119.901 17.9798 120.153 18.1679 120.435 18.2971C120.718 18.4147 121.023 18.4735 121.352 18.4735Z" fill="white"/>
<path d="M127.555 19.9368V10.7336H129.477L129.388 14.1716H129.671C129.753 13.3254 129.906 12.6319 130.129 12.0911C130.353 11.5505 130.652 11.1509 131.029 10.8923C131.405 10.6337 131.863 10.5044 132.403 10.5044C132.545 10.5044 132.691 10.5221 132.844 10.5573C133.009 10.5808 133.179 10.6219 133.356 10.6808L133.25 13.0785C133.062 12.9844 132.862 12.9198 132.651 12.8846C132.451 12.8376 132.262 12.814 132.086 12.814C131.64 12.814 131.258 12.9433 130.94 13.2019C130.623 13.4487 130.364 13.8073 130.164 14.2774C129.977 14.7475 129.853 15.3117 129.794 15.9699V19.9368H127.555Z" fill="white"/>
<path d="M138.29 20.1305C137.772 20.1305 137.332 20.06 136.968 19.919C136.615 19.7779 136.321 19.5722 136.086 19.3018C135.851 19.0198 135.68 18.6848 135.575 18.2969C135.469 17.8973 135.416 17.4507 135.416 16.9571V12.5141H134.164L134.199 10.8392H134.869C135.281 10.8157 135.581 10.7158 135.768 10.5395C135.968 10.3632 136.086 10.0811 136.121 9.69323L136.28 8.67065H137.585V10.7334H139.965V12.567H137.585V16.8512C137.585 17.3331 137.697 17.6623 137.919 17.8385C138.155 18.0148 138.449 18.103 138.801 18.103C139.001 18.103 139.207 18.0795 139.418 18.0325C139.629 17.9737 139.824 17.8856 140 17.768V19.8485C139.659 19.966 139.348 20.0423 139.066 20.0777C138.783 20.1129 138.525 20.1305 138.29 20.1305Z" fill="white"/>
<path d="M13.2962 2.33758C16.3932 2.22443 19.2736 3.13283 21.627 4.74921C21.8598 4.90761 21.7984 5.26644 21.5268 5.34403C12.3911 7.89791 5.46975 15.7502 4.28656 25.3806C4.251 25.6586 3.90509 25.7718 3.71437 25.5681C1.24455 22.9172 -0.200492 19.2998 0.0225668 15.3462C0.420195 8.2729 6.21651 2.59619 13.2962 2.33758Z" fill="#FED902"/>
<path d="M18.0221 15.3003C19.577 15.7464 20.8701 16.6387 21.8141 17.7895C21.9951 18.0126 21.8334 18.3423 21.5458 18.3326C16.5383 18.1872 11.7828 20.9285 9.45205 25.4834C9.32271 25.7389 8.95096 25.7227 8.84424 25.4576C8.1557 23.7346 8.08459 21.7561 8.81518 19.8714C10.2279 16.2184 14.2592 14.2173 18.0221 15.3003Z" fill="#FED902"/>
</g>
<defs>
<clipPath id="clip0_44_3">
<rect width="140" height="28" fill="white"/>
</clipPath>
</defs>
</svg>
